<svg id="Layer_1" data-name="Layer 1" xmlns="http://www.w3.org/2000/svg" xmlns:xlink="http://www.w3.org/1999/xlink" viewBox="0 0 170.93 170.93"><defs><linearGradient id="linear-gradient" x1="2.47" y1="85.47" x2="168.47" y2="85.47" gradientUnits="userSpaceOnUse"><stop offset="0" stop-color="#cce0f4"/><stop offset="0" stop-color="#c3dcf2"/><stop offset="0" stop-color="#a9d2ee"/><stop offset="0" stop-color="#80c2e8"/><stop offset="0" stop-color="#47acde"/><stop offset="0" stop-color="#1f9cd8"/><stop offset="1" stop-color="#0c75bc"/><stop offset="1" stop-color="#005c97"/></linearGradient><linearGradient id="linear-gradient-2" x1="68.09" y1="60.03" x2="68.09" y2="60.03" xlink:href="#linear-gradient"/><linearGradient id="linear-gradient-3" x1="64.84" y1="40.15" x2="111.36" y2="40.15" xlink:href="#linear-gradient"/></defs><circle cx="85.47" cy="85.47" r="83" fill="url(#linear-gradient)"/><rect x="32.47" y="83.06" width="108" height="45.4" fill="none" stroke="#fff" stroke-miterlimit="10" stroke-width="2"/><rect x="22.13" y="68.53" width="126.83" height="14.53" fill="none" stroke="#fff" stroke-miterlimit="10" stroke-width="2"/><polyline points="22.13 68.53 41.71 48.47 128.47 48.47 148.95 68.53" fill="none" stroke="#fff" stroke-miterlimit="10" stroke-width="2"/><path d="M68.09,60" transform="translate(-1.78 -2.29)" stroke="#fff" stroke-miterlimit="10" stroke-width="2" fill="url(#linear-gradient-2)"/><polyline points="101.41 58.33 111.36 34.86 79.98 21.96 64.84 57.7" stroke="#fff" stroke-miterlimit="10" stroke-width="2" fill="url(#linear-gradient-3)"/><line x1="53.54" y1="58.33" x2="115.39" y2="58.33" fill="none" stroke="#fff" stroke-miterlimit="10" stroke-width="2"/><text transform="translate(79.13 32.54) rotate(22.5)" font-size="8" fill="#fff" stroke="#fff" stroke-miterlimit="10" stroke-width="0.5" font-family="Helvetica">1. B<tspan x="0" y="9.6">2. C</tspan><tspan x="0" y="19.56">3.</tspan><tspan x="6.67" y="19.56" font-size="8.3"> </tspan><tspan x="8.98" y="19.56" letter-spacing="-0.05em">A</tspan></text><circle cx="85.47" cy="85.47" r="83.97" fill="none" stroke="#ffd230" stroke-miterlimit="10" stroke-width="3"/></svg>