<svg id="Layer_1" data-name="Layer 1" xmlns="http://www.w3.org/2000/svg" xmlns:xlink="http://www.w3.org/1999/xlink" viewBox="0 0 170.93 170.93"><defs><linearGradient id="linear-gradient" x1="2.71" y1="85.47" x2="168.71" y2="85.47" gradientUnits="userSpaceOnUse"><stop offset="0" stop-color="#cce0f4"/><stop offset="0" stop-color="#c3dcf2"/><stop offset="0" stop-color="#a9d2ee"/><stop offset="0" stop-color="#80c2e8"/><stop offset="0" stop-color="#47acde"/><stop offset="0" stop-color="#1f9cd8"/><stop offset="1" stop-color="#0c75bc"/><stop offset="1" stop-color="#005c97"/></linearGradient></defs><circle cx="85.71" cy="85.47" r="83" fill="url(#linear-gradient)"/><path d="M129.84,147.76H45.13v-18.3q10.18-.45,20.73-.7c22.4-.51,43.77-.2,64,.7Z" transform="translate(-1.53 -2.29)" fill="none" stroke="#fff" stroke-miterlimit="10" stroke-width="2"/><path d="M58.65,128.83a59.26,59.26,0,0,0,12.37-16,57,57,0,0,0,6.55-26.39" transform="translate(-1.53 -2.29)" fill="none" stroke="#fff" stroke-miterlimit="10" stroke-width="2"/><path d="M113.62,128.52a58.54,58.54,0,0,1-11.28-16,61.36,61.36,0,0,1-6-26.39" transform="translate(-1.53 -2.29)" fill="none" stroke="#fff" stroke-miterlimit="10" stroke-width="2"/><path d="M51.44,32.63a83,83,0,0,0,9.83,33.1A74.41,74.41,0,0,0,87.49,93.46" transform="translate(-1.53 -2.29)" fill="none" stroke="#fff" stroke-miterlimit="10" stroke-width="2"/><path d="M121.73,32.21a85.18,85.18,0,0,1-9.64,33.34A74.16,74.16,0,0,1,86.38,93.49" transform="translate(-1.53 -2.29)" fill="none" stroke="#fff" stroke-miterlimit="10" stroke-width="2"/><path d="M50.54,33.77a147.21,147.21,0,0,1,35.58-5,150,150,0,0,1,36.51,3.74" transform="translate(-1.53 -2.29)" fill="none" stroke="#fff" stroke-miterlimit="10" stroke-width="2"/><path d="M52.52,39.15H37.91" transform="translate(-1.53 -2.29)" fill="none" stroke="#fff" stroke-miterlimit="10" stroke-width="2"/><path d="M38.82,39.61c-.17,1.79-1.27,15.38,9,25.23a30.5,30.5,0,0,0,18,8.12" transform="translate(-1.53 -2.29)" fill="none" stroke="#fff" stroke-miterlimit="10" stroke-width="2"/><path d="M44,44.12c-.11,1.12-.8,9.62,5.64,15.79A19,19,0,0,0,60.93,65" transform="translate(-1.53 -2.29)" fill="none" stroke="#fff" stroke-miterlimit="10" stroke-width="2"/><line x1="41.57" y1="41.83" x2="51.03" y2="41.83" fill="none" stroke="#fff" stroke-miterlimit="10" stroke-width="2"/><path d="M120.69,39.06h14.6" transform="translate(-1.53 -2.29)" fill="none" stroke="#fff" stroke-miterlimit="10" stroke-width="2"/><path d="M134.38,39.52c.18,1.79,1.27,15.38-9,25.23a30.38,30.38,0,0,1-18,8.11" transform="translate(-1.53 -2.29)" fill="none" stroke="#fff" stroke-miterlimit="10" stroke-width="2"/><path d="M129.19,44c.11,1.13.8,9.63-5.64,15.79a19,19,0,0,1-11.27,5.08" transform="translate(-1.53 -2.29)" fill="none" stroke="#fff" stroke-miterlimit="10" stroke-width="2"/><line x1="128.57" y1="41.73" x2="119.11" y2="41.73" fill="none" stroke="#fff" stroke-miterlimit="10" stroke-width="2"/><circle cx="85.47" cy="85.47" r="83.97" fill="none" stroke="#ffd230" stroke-miterlimit="10" stroke-width="3"/></svg>